<?xml version="1.0" encoding="iso-8859-1"?>
<!-- Uploaded to: SVG Repo, www.svgrepo.com, Generator: SVG Repo Mixer Tools -->
<svg fill="#000000" height="800px" width="800px" version="1.1" id="Capa_1" xmlns="http://www.w3.org/2000/svg" xmlns:xlink="http://www.w3.org/1999/xlink" 
	 viewBox="0 0 19.503 19.503" xml:space="preserve">
<g>
	<path d="M18.183,19.503c0,0-2.784-0.898-6.109-1.308c0.319-0.169,0.627-0.366,0.894-0.618c0.838-0.797,1.317-1.951,1.317-3.119
		c0-0.194-0.014-0.391-0.041-0.582c-0.166-1.174-0.829-2.141-1.821-2.66c-0.846-0.438-2.34-1.06-3.838-1.654
		c1.524-3.394,2.726-6.302,2.913-6.715c0.133-0.049,0.155-0.149,0.155-0.149s0.861-1.756,0.903-1.897
		c0.042-0.142,0.058-0.552-0.382-0.736C11.737-0.12,11.481,0.15,11.481,0.15s-0.707,1.373-0.891,1.741
		c-0.146,0.294-0.114,0.515-0.093,0.592c-0.321,0.71-1.443,3.439-2.904,6.69C6.151,8.615,4.844,8.13,4.297,7.93
		C4.249,7.729,4.11,7.712,4.11,7.712S2.297,6.981,2.152,6.948C2.006,6.917,1.594,6.933,1.443,7.385
		C1.296,7.836,1.582,8.07,1.582,8.07s1.422,0.603,1.804,0.76c0.207,0.085,0.373,0.088,0.485,0.074
		c0.491,0.182,1.815,0.672,3.286,1.241C6.73,11.1,5.929,12.88,5.929,12.88l-0.003,0.007c-0.021,0.051-0.3,0.75-0.3,1.671
		c0,0.761,0.189,1.675,0.875,2.507c0.336,0.409,0.758,0.75,1.236,1.017c-3.382,0.304-6.418,1.421-6.418,1.421H18.183z M9.844,17.625
		c-0.997-0.062-1.938-0.522-2.523-1.234c-0.495-0.602-0.636-1.273-0.636-1.842c0-0.67,0.196-1.187,0.223-1.252
		c0.002-0.004,0.802-1.785,1.242-2.764c1.486,0.588,2.971,1.205,3.782,1.627c0.692,0.361,1.141,1.023,1.26,1.863
		c0.021,0.146,0.032,0.293,0.032,0.439c0,0.879-0.361,1.748-0.989,2.345C11.618,17.391,10.77,17.68,9.844,17.625z M6.827,16.796
		c-0.516-0.629-0.776-1.381-0.776-2.238c0-0.848,0.26-1.482,0.27-1.51l1.41-3.138l-0.42-0.16C6.003,9.243,4.806,8.797,4.209,8.577
		c0.035-0.095,0.038-0.103,0.073-0.2C4.888,8.601,6.109,9.054,7.44,9.57l0.377,0.147c0,0,2.621-6.07,2.938-6.776
		c0.094,0.043,0.101,0.048,0.193,0.089c-0.317,0.703-2.934,6.764-2.934,6.764l0.414,0.163c1.803,0.714,3.08,1.264,3.796,1.638
		c0.87,0.451,1.453,1.305,1.6,2.339c0.023,0.171,0.035,0.347,0.035,0.524c0,1.055-0.444,2.105-1.187,2.811
		c-0.306,0.291-0.66,0.518-1.049,0.688c-0.139-0.004-0.526-0.011-0.526-0.011c-0.037,0-0.073-0.002-0.112-0.002
		c0.585-0.142,1.113-0.421,1.542-0.827c0.713-0.678,1.12-1.643,1.12-2.652c0-0.168-0.012-0.334-0.033-0.5
		c-0.14-0.979-0.667-1.754-1.485-2.18c-0.716-0.371-1.998-0.926-3.823-1.646l-0.378-0.15L6.514,13.13l-0.002,0.01
		C6.47,13.245,6.26,13.813,6.26,14.548c0,0.812,0.246,1.522,0.732,2.113c0.479,0.582,1.175,1.016,1.945,1.234
		c-0.23-0.008-0.456-0.016-0.683-0.023C7.689,17.612,7.196,17.242,6.827,16.796z"/>
</g>
</svg>